<?xml version="1.0" encoding="UTF-8" standalone="no"?>
<svg
   xmlns:dc="http://purl.org/dc/elements/1.1/"
   xmlns:cc="http://creativecommons.org/ns#"
   xmlns:rdf="http://www.w3.org/1999/02/22-rdf-syntax-ns#"
   xmlns:svg="http://www.w3.org/2000/svg"
   xmlns="http://www.w3.org/2000/svg"
   xmlns:sodipodi="http://sodipodi.sourceforge.net/DTD/sodipodi-0.dtd"
   xmlns:inkscape="http://www.inkscape.org/namespaces/inkscape"
   inkscape:export-ydpi="650.23999"
   inkscape:export-xdpi="650.23999"
   inkscape:export-filename="C:\projets\geocity_front\static\icon.png"
   sodipodi:docname="pwa-icon.svg"
   inkscape:version="1.0 (4035a4fb49, 2020-05-01)"
   id="svg8"
   version="1.1"
   viewBox="0 0 20.791643 19.629808"
   height="19.629808mm"
   width="20.791643mm">
  <defs
     id="defs2" />
  <sodipodi:namedview
     inkscape:window-maximized="1"
     inkscape:window-y="-8"
     inkscape:window-x="-8"
     inkscape:window-height="1377"
     inkscape:window-width="2560"
     fit-margin-bottom="0"
     fit-margin-right="0"
     fit-margin-left="0"
     fit-margin-top="0"
     showgrid="false"
     inkscape:document-rotation="0"
     inkscape:current-layer="g849"
     inkscape:document-units="mm"
     inkscape:cy="33.612008"
     inkscape:cx="37.830354"
     inkscape:zoom="11.313709"
     inkscape:pageshadow="2"
     inkscape:pageopacity="0.0"
     borderopacity="1.0"
     bordercolor="#666666"
     pagecolor="#ffffff"
     id="base" />
  <metadata
     id="metadata5">
    <rdf:RDF>
      <cc:Work
         rdf:about="">
        <dc:format>image/svg+xml</dc:format>
        <dc:type
           rdf:resource="http://purl.org/dc/dcmitype/StillImage" />
        <dc:title></dc:title>
      </cc:Work>
    </rdf:RDF>
  </metadata>
  <g
     transform="translate(-47.334411,-77.455167)"
     id="layer1"
     inkscape:groupmode="layer"
     inkscape:label="Calque 1">
    <g
       transform="matrix(0.26458333,0,0,0.26458333,47.334411,77.454133)"
       fill="none"
       fill-rule="evenodd"
       id="g849">
      <path
         style="stroke-width:0.992139"
         sodipodi:nodetypes="ccccc"
         fill="#008c6f"
         fill-rule="nonzero"
         d="M 0,74.184152 78.582586,74.195312 78.576813,0.00421224 0,0.00390625 Z"
         id="path833" />
      <g
         transform="translate(-4)"
         fill="#ffffff"
         fill-rule="nonzero"
         id="g847">
        <path
           d="M 25.995,26 C 25.449,26 24.931,25.82 24.501,25.478 24.353,25.361 24.218,25.225 24.1,25.074 21.075,21.221 16,14.147 16,10.048 16,4.51 20.483,0.002 25.995,0 31.513,0 36,4.507 36,10.046 c 0,4.125 -5.077,11.187 -8.104,15.033 -0.4,0.508 -0.972,0.831 -1.616,0.906 C 26.186,25.995 26.092,26 25.995,26 Z m 0,-23.57 c -4.178,0.002 -7.577,3.418 -7.577,7.618 0,2.85 3.917,8.856 7.582,13.525 3.665,-4.657 7.582,-10.656 7.582,-13.522 C 33.582,5.848 30.18,2.429 26,2.429 L 25.995,1.822 v 0.607 z"
           transform="translate(15,8)"
           id="path839" />
        <path
           d="m 26.457,14.042 c -1.188,0 -2.307,-0.468 -3.15,-1.322 C 22.467,11.867 22,10.731 22,9.524 21.998,7.033 23.997,5.002 26.455,5 c 2.455,0 4.456,2.025 4.461,4.516 0,1.208 -0.461,2.346 -1.303,3.2 -0.842,0.853 -1.96,1.326 -3.151,1.326 z M 26.455,7.426 c -1.139,0 -2.064,0.94 -2.064,2.098 0,0.56 0.215,1.086 0.607,1.482 0.39,0.395 0.909,0.613 1.459,0.613 0.555,0 1.073,-0.218 1.463,-0.613 0.39,-0.396 0.605,-0.922 0.605,-1.482 -0.002,-1.16 -0.932,-2.098 -2.07,-2.098 z M 47.97,40 c -0.538,0 -1.047,-0.18 -1.47,-0.517 -0.153,-0.12 -0.29,-0.26 -0.409,-0.417 -3.254,-4.203 -7.135,-9.952 -7.135,-13.45 0,-5.044 4.043,-9.148 9.017,-9.15 2.415,0 4.68,0.95 6.382,2.677 1.705,1.727 2.643,4.027 2.645,6.469 0,3.5 -3.883,9.248 -7.142,13.457 -0.392,0.509 -0.959,0.832 -1.592,0.91 C 48.166,39.993 48.067,40 47.971,40 Z m 0,-21.11 c -3.653,0.003 -6.625,3.018 -6.625,6.727 0,2.093 2.54,6.675 6.628,11.957 4.09,-5.282 6.633,-9.864 6.633,-11.955 0,-1.797 -0.691,-3.488 -1.944,-4.756 -1.25,-1.274 -2.915,-1.972 -4.684,-1.972 l -0.005,-0.607 v 0.607 H 47.97 Z"
           transform="translate(15,8)"
           id="path841" />
        <path
           d="m 47.807,30.315 c -2.31,0 -4.19,-1.866 -4.19,-4.157 0,-2.292 1.878,-4.156 4.188,-4.158 1.12,0 2.174,0.43 2.965,1.216 0.79,0.785 1.228,1.83 1.23,2.94 -0.002,2.293 -1.883,4.16 -4.193,4.16 z m 0,-5.908 c -0.973,0 -1.764,0.785 -1.764,1.75 0,0.966 0.791,1.75 1.764,1.75 0.973,0 1.764,-0.784 1.764,-1.75 0,-0.469 -0.184,-0.907 -0.517,-1.24 -0.332,-0.33 -0.776,-0.51 -1.247,-0.51 V 23.806 Z M 11.405,58 c -0.67,0 -1.213,-0.54 -1.213,-1.204 0,-2.443 -2.363,-5.958 -4.652,-9.357 C 3.248,44.03 0.875,40.506 0.29,37.319 -0.365,34.607 0.098,31.762 1.598,29.34 c 1.5,-2.42 3.86,-4.117 6.645,-4.776 0.813,-0.193 1.65,-0.291 2.49,-0.291 0.223,0 0.449,0.007 0.672,0.021 0.228,-0.014 0.456,-0.021 0.684,-0.021 5.59,0 10.288,4.33 10.69,9.863 0.08,1.083 -0.01,2.169 -0.261,3.226 -0.457,2.652 -2.623,5.924 -4.921,9.39 -2.448,3.696 -4.979,7.514 -4.979,10.044 0,0.665 -0.543,1.204 -1.213,1.204 z M 10.733,26.68 c -0.648,0 -1.293,0.075 -1.924,0.226 -2.155,0.51 -3.982,1.823 -5.142,3.696 -1.16,1.873 -1.516,4.082 -1.002,6.22 0.51,2.76 2.74,6.074 4.894,9.28 1.475,2.194 2.885,4.288 3.841,6.27 1.043,-2.225 2.628,-4.615 4.169,-6.94 2.064,-3.119 4.197,-6.337 4.568,-8.53 0.003,-0.015 0.012,-0.068 0.017,-0.082 0.2,-0.823 0.27,-1.668 0.207,-2.511 -0.16,-2.19 -1.17,-4.189 -2.844,-5.626 -1.507,-1.293 -3.426,-2.003 -5.408,-2.003 -0.204,0 -0.408,0.007 -0.612,0.022 l -0.09,0.002 -0.075,-0.002 c -0.209,-0.015 -0.405,-0.022 -0.6,-0.022 z"
           transform="translate(15,8)"
           id="path843" />
        <path
           d="m 11.711,40.607 c -3.148,0 -5.709,-2.54 -5.711,-5.662 -0.002,-3.125 2.558,-5.668 5.709,-5.67 1.528,0 2.962,0.59 4.04,1.657 1.079,1.07 1.673,2.49 1.676,4.003 0,1.514 -0.593,2.936 -1.67,4.008 -1.079,1.07 -2.513,1.662 -4.04,1.662 h -0.004 z m 0.002,-8.943 c -1.824,0.003 -3.306,1.473 -3.304,3.28 0,1.808 1.483,3.276 3.304,3.276 0.884,0 1.714,-0.341 2.337,-0.962 0.624,-0.62 0.968,-1.442 0.968,-2.318 0,-0.879 -0.344,-1.7 -0.968,-2.318 -0.625,-0.619 -1.456,-0.958 -2.337,-0.958 v -0.596 z m 28.462,6.53 c -0.236,0 -0.467,-0.07 -0.667,-0.199 L 27.696,30.187 c -0.55,-0.366 -0.703,-1.108 -0.334,-1.655 0.224,-0.334 0.599,-0.532 1,-0.532 0.24,0 0.47,0.07 0.668,0.2 l 11.81,7.807 c 0.266,0.177 0.45,0.446 0.512,0.759 0.062,0.313 0,0.63 -0.178,0.895 -0.22,0.334 -0.595,0.533 -1,0.533 z M 17.86,55 c -0.467,0 -0.893,-0.27 -1.09,-0.69 -0.135,-0.289 -0.15,-0.613 -0.041,-0.912 0.11,-0.298 0.33,-0.54 0.62,-0.673 L 41.29,41.64 c 0.161,-0.074 0.332,-0.112 0.508,-0.112 0.464,0 0.893,0.27 1.09,0.687 0.135,0.289 0.15,0.614 0.041,0.915 -0.11,0.298 -0.33,0.539 -0.623,0.673 l -23.94,11.084 c -0.156,0.074 -0.327,0.112 -0.505,0.112 z"
           transform="translate(15,8)"
           id="path845" />
      </g>
    </g>
  </g>
</svg>
