<?xml version="1.0" encoding="UTF-8" standalone="no"?>
<svg
   xmlns:dc="http://purl.org/dc/elements/1.1/"
   xmlns:cc="http://creativecommons.org/ns#"
   xmlns:rdf="http://www.w3.org/1999/02/22-rdf-syntax-ns#"
   xmlns:svg="http://www.w3.org/2000/svg"
   xmlns="http://www.w3.org/2000/svg"
   xmlns:sodipodi="http://sodipodi.sourceforge.net/DTD/sodipodi-0.dtd"
   xmlns:inkscape="http://www.inkscape.org/namespaces/inkscape"
   width="303.89285mm"
   height="303.89285mm"
   viewBox="0 0 303.89285 303.89285"
   version="1.1"
   id="svg8"
   inkscape:version="1.0.1 (3bc2e813f5, 2020-09-07)"
   sodipodi:docname="forms_culture.svg"
   inkscape:export-filename="E:\icones\inkscape\icones\forms_sport.png"
   inkscape:export-xdpi="96"
   inkscape:export-ydpi="96">
  <defs
     id="defs2">
    <rect
       x="-1206.5"
       y="-148.16667"
       width="423.33334"
       height="296.33334"
       id="rect1787" />
    <rect
       x="-1206.5"
       y="-148.16667"
       width="423.33334"
       height="296.33334"
       id="rect1547" />
  </defs>
  <sodipodi:namedview
     id="base"
     pagecolor="#e1e1e1"
     bordercolor="#666666"
     borderopacity="1.0"
     inkscape:pageopacity="0"
     inkscape:pageshadow="2"
     inkscape:zoom="0.35"
     inkscape:cx="794.28569"
     inkscape:cy="491.42853"
     inkscape:document-units="mm"
     inkscape:current-layer="layer1"
     inkscape:document-rotation="0"
     showgrid="false"
     inkscape:window-width="2560"
     inkscape:window-height="1377"
     inkscape:window-x="-8"
     inkscape:window-y="-8"
     inkscape:window-maximized="1" />
  <metadata
     id="metadata5">
    <rdf:RDF>
      <cc:Work
         rdf:about="">
        <dc:format>image/svg+xml</dc:format>
        <dc:type
           rdf:resource="http://purl.org/dc/dcmitype/StillImage" />
        <dc:title></dc:title>
      </cc:Work>
    </rdf:RDF>
  </metadata>
  <g
     inkscape:label="Calque 1"
     inkscape:groupmode="layer"
     id="layer1"
     transform="translate(104.32142,-18.142868)">
    <g
       id="g1090"
       transform="matrix(17.809135,0,0,17.809135,2578.2183,6006.0097)"
       style="fill:#ffffff;fill-opacity:1">
      <path
         d="m -135.95169,-329.15338 c -1.13162,0.65325 -2.38839,0.43576 -3.16944,0.22674 -0.78079,-0.20928 -1.97829,-0.64981 -2.63128,-1.78117 -0.65299,-1.13136 -3.21839,7.3271 0.85328,8.41825 4.07167,1.09087 6.07933,-7.51708 4.94744,-6.86382 z m -5.14747,0.99192 c 0.87789,-0.004 0.69295,0.98266 0.69295,0.98266 -0.66464,0.10081 -1.63566,-0.43841 -1.63566,-0.43841 0,0 0.0648,-0.54055 0.94271,-0.54425 z m 0.5588,4.5331 c -1.56898,-0.39052 -1.32715,-2.29843 -1.17051,-1.95712 0.15716,0.34105 0.89667,0.74824 1.45415,0.89773 0.558,0.14949 1.40202,0.16669 1.70841,-0.05 0.30586,-0.21723 -0.43815,1.55601 -1.99205,1.10939 z m 3.29486,-2.70377 c 0,0 -1.11099,-0.0185 -1.63618,-0.43815 0,0 0.33337,-0.94668 1.0914,-0.50456 0.75856,0.44212 0.54478,0.94271 0.54478,0.94271 z"
         id="path1062"
         style="fill:#ffffff;fill-opacity:1;stroke-width:0.264583" />
      <path
         d="m -143.47935,-326.69355 c -0.16113,0.0275 -0.31882,0.0611 -0.45879,0.0987 -0.55747,0.14922 -1.3163,0.48709 -1.49965,0.72839 -0.18336,0.24104 -0.24951,-1.00885 1.31736,-1.40943 0.25849,-0.0725 0.48736,-0.0992 0.69188,-0.0987 0.0114,-0.11007 0.0206,-0.21881 0.0357,-0.33126 0.045,-0.34263 0.13997,-0.88053 0.28258,-1.43034 -0.71517,0.0894 -0.78396,-0.79745 -0.78396,-0.79745 0.30427,-0.13335 0.72204,-0.13467 1.066,-0.10187 0.2413,-0.626 0.55404,-1.1131 0.93372,-1.1131 0.17568,0 0.33443,0.0992 0.43471,0.27226 0.032,0.0556 0.0699,0.10742 0.10583,0.1606 -0.32861,-1.48696 -0.88,-2.52201 -1.13691,-2.07777 -0.65326,1.13162 -1.84997,1.57189 -2.63129,1.78117 -0.78078,0.20902 -2.03755,0.42625 -3.16891,-0.22675 -1.13162,-0.65352 0.87603,7.9547 4.94744,6.86383 0.0347,-0.01 0.0677,-0.0204 0.10134,-0.031 -0.18838,-0.65802 -0.2712,-1.42558 -0.23707,-2.28732 z m -2.5818,-1.64227 c -0.84852,0.22357 -1.05119,-0.28152 -1.05119,-0.28152 0,0 0.79851,-0.77232 1.46658,-0.84693 2.7e-4,-2.6e-4 0.43366,0.90487 -0.41539,1.12845 z"
         id="path1064"
         style="fill:#ffffff;fill-opacity:1;stroke-width:0.264583" />
    </g>
  </g>
</svg>
