<?xml version="1.0" encoding="UTF-8" standalone="no"?>
<svg
   xmlns:dc="http://purl.org/dc/elements/1.1/"
   xmlns:cc="http://creativecommons.org/ns#"
   xmlns:rdf="http://www.w3.org/1999/02/22-rdf-syntax-ns#"
   xmlns:svg="http://www.w3.org/2000/svg"
   xmlns="http://www.w3.org/2000/svg"
   xmlns:sodipodi="http://sodipodi.sourceforge.net/DTD/sodipodi-0.dtd"
   xmlns:inkscape="http://www.inkscape.org/namespaces/inkscape"
   width="303.89285mm"
   height="303.89285mm"
   viewBox="0 0 303.89285 303.89285"
   version="1.1"
   id="svg8"
   inkscape:version="1.0.1 (3bc2e813f5, 2020-09-07)"
   sodipodi:docname="forms_commercial.svg"
   inkscape:export-filename="E:\icones\inkscape\icones\forms_commercial.png"
   inkscape:export-xdpi="96"
   inkscape:export-ydpi="96">
  <defs
     id="defs2">
    <rect
       x="-1206.5"
       y="-148.16667"
       width="423.33334"
       height="296.33334"
       id="rect1787" />
    <rect
       x="-1206.5"
       y="-148.16667"
       width="423.33334"
       height="296.33334"
       id="rect1547" />
  </defs>
  <sodipodi:namedview
     id="base"
     pagecolor="#e1e1e1"
     bordercolor="#666666"
     borderopacity="1.0"
     inkscape:pageopacity="0"
     inkscape:pageshadow="2"
     inkscape:zoom="0.35"
     inkscape:cx="885.71425"
     inkscape:cy="602.85711"
     inkscape:document-units="mm"
     inkscape:current-layer="layer1"
     inkscape:document-rotation="0"
     showgrid="false"
     inkscape:window-width="2560"
     inkscape:window-height="1377"
     inkscape:window-x="-8"
     inkscape:window-y="-8"
     inkscape:window-maximized="1" />
  <metadata
     id="metadata5">
    <rdf:RDF>
      <cc:Work
         rdf:about="">
        <dc:format>image/svg+xml</dc:format>
        <dc:type
           rdf:resource="http://purl.org/dc/dcmitype/StillImage" />
        <dc:title />
      </cc:Work>
    </rdf:RDF>
  </metadata>
  <g
     inkscape:label="Calque 1"
     inkscape:groupmode="layer"
     id="layer1"
     transform="translate(128.51189,11.339279)">
    <path
       fill="#000000"
       d="m 121.71111,129.79083 h -4.22713 c 0.0115,-0.27152 0.0372,-0.53446 0.0372,-0.80884 0,-6.42503 -3.5069,-12.0155 -8.70582,-15.00223 -0.68594,4.97312 -1.50336,10.26062 -2.42082,15.81107 h -6.33357 c 12.02693,-72.561753 2.49514,-84.242832 -11.263805,-86.697961 -1.32617,-0.23721 -2.64663,-0.380122 -3.95562,-0.380122 -12.875807,0 -25.194268,13.716072 -38.315868,87.078083 h -0.580199 c -0.0543,-4.39576 -1.357599,-8.48858 -3.56406,-11.95547 3.266821,-16.95433 6.570801,-30.879051 10.077702,-42.117141 -9.334601,0.25437 -16.828561,7.88267 -16.828561,17.28014 -3.95849,0 -7.705461,0.85172 -11.100901,2.35508 -2.33508,-6.79087 -8.765831,-11.6811 -16.3512712,-11.6811 -2.54657,0 -4.950248,0.5659 -7.130979,1.55196 -3.16394,-3.45261 -7.694041,-5.63335 -12.7471908,-5.63335 -1.14609,0 -2.263619,0.12005 -3.346849,0.32869 3.77557,3.66695 6.4078988,8.49431 7.2967608,13.87327 l 0.920319,5.57332 c -2.137871,0.15434 -4.1871398,0.60306 -6.1278008,1.309021 l -0.968898,-5.861991 c -0.0971,-0.57162 -0.22864,-1.13181 -0.368692,-1.68056 -0.0401,-0.16007 -0.0858,-0.3144 -0.131469,-0.4716 -0.122902,-0.41728 -0.257231,-0.82884 -0.40014,-1.2347 -0.0543,-0.13719 -0.10002,-0.27438 -0.148622,-0.40871 -0.202927,-0.52018 -0.425857,-1.02606 -0.671658,-1.52052 -0.0372,-0.0685 -0.0772,-0.13433 -0.108601,-0.20578 -0.22294,-0.423 -0.463021,-0.84315 -0.708818,-1.24899 -0.0772,-0.12576 -0.157192,-0.25152 -0.240073,-0.37442 -0.254378,-0.39156 -0.520189,-0.76883 -0.80028,-1.13752 -0.0514,-0.0658 -0.102917,-0.14005 -0.154339,-0.20865 -0.345829,-0.4373 -0.708808,-0.86029 -1.083231,-1.26328 -0.06,-0.0629 -0.125748,-0.12577 -0.188629,-0.18864 -0.322969,-0.34011 -0.66594,-0.66308 -1.01463,-0.97462 -0.0915,-0.08 -0.180059,-0.16291 -0.27152,-0.24008 -2.09785,-1.80347 -4.584409,-3.14392 -7.282469,-3.88132 l -4.738751,-28.61827 -15.473809,2.56087 4.735888,28.61827 c -5.879139,3.98707 -9.231709,11.14665 -7.994139,18.612031 l 4.773041,28.84406 h -6.34215 l -2.34937,-14.19338 c -0.160049,-0.003 -0.314391,-0.0343 -0.477301,-0.0343 -8.50288,0 -15.556709,6.13922 -17.014341,14.22767 h -4.47866 c -5.444709,0 -9.854769,4.90452 -9.854769,10.95516 0,6.04777 4.407199,10.94657 9.854769,10.94657 h 4.107101 l 16.571341,79.66701 c 1.06607,3.1868 4.05566,5.34181 7.41966,5.34181 H 93.610165 c 3.364,0 6.35072,-2.15501 7.419655,-5.34181 l 16.56562,-79.66701 h 4.10997 c 5.44184,0 9.85477,-4.8988 9.85477,-10.94657 0.009,-6.05064 -4.40436,-10.95516 -9.84907,-10.95516 z m -138.961393,90.40496 c -0.41728,0.0572 -0.83457,0.0743 -1.240409,0.0743 -5.06744,0 -9.45751,-3.77843 -10.08629,-8.93446 l -5.97346,-49.02234 c -0.67736,-5.57331 3.286839,-10.64647 8.863009,-11.32669 5.584759,-0.68309 10.646471,3.28968 11.32671,8.86586 l 5.9791698,49.01948 c 0.67736,5.57617 -3.2954088,10.64647 -8.8687298,11.32384 z M 0.43857875,129.79083 H -17.950521 c -1.377601,-2.26362 -2.189311,-4.90452 -2.189311,-7.73977 0,-8.23993 6.705129,-14.9422 14.9422088,-14.9422 5.19605195,0 9.76616,2.67233 12.43851,6.70799 -4.14427,4.08138 -6.73372005,9.72615 -6.80230805,15.97398 z M 32.603768,210.10665 c 0,5.61334 -4.555831,10.16631 -10.169159,10.16631 -5.619052,0 -10.172031,-4.55297 -10.172031,-10.16631 v -49.02233 c 0,-5.62191 4.552979,-10.17488 10.172031,-10.17488 5.613328,0 10.169159,4.55297 10.169159,10.17488 z M 8.2640778,129.79083 c 0.128619,-8.12561 6.7708702,-14.69926 14.9250692,-14.69926 8.157052,0 14.799302,6.57365 14.927922,14.69926 z M 79.419635,162.3133 73.43475,211.33564 c -0.631632,5.15603 -5.013121,8.93446 -10.083411,8.93446 -0.40871,0 -0.82028,-0.02 -1.24328,-0.0743 -5.57331,-0.67737 -9.54324,-5.75052 -8.86301,-11.32384 l 5.982039,-49.02234 c 0.67737,-5.57046 5.74765,-9.55181 11.326691,-8.863 5.576176,0.68308 9.546096,5.75623 8.865856,11.32669 z m 9.05736,-37.51559 c -0.89743,0.25151 -2.16929,0.53733 -3.66124,0.71454 -1.15467,0.14861 -2.43797,0.22293 -3.79556,0.22293 -2.17217,0 -4.5387,-0.1915 -6.862336,-0.6145 -3.78128,-0.67452 -7.453961,-1.93494 -10.13487,-3.32969 -1.340451,-0.6831 -2.437971,-1.38906 -3.189639,-1.94067 -0.760273,-0.53732 -1.177552,-0.92031 -1.177552,-0.92031 0,0 0.52874,-0.21722 1.426202,-0.4573 0.89744,-0.25151 2.166448,-0.53161 3.66123,-0.71453 1.160399,-0.14861 2.449409,-0.22292 3.821308,-0.22292 2.166451,0 4.52152,0.19148 6.839461,0.60306 3.778416,0.67165 7.456806,1.92636 10.140566,3.32684 1.34047,0.68308 2.4294,1.38618 3.18109,1.93779 0.76027,0.54019 1.17754,0.92603 1.17754,0.92603 0,0 -0.52875,0.22294 -1.4262,0.46873 z m 3.11534,-17.46306 c -0.89458,0.25724 -2.16645,0.53732 -3.65838,0.71739 -1.15468,0.15147 -2.44082,0.22865 -3.79843,0.22865 -2.17502,0 -4.53583,-0.19722 -6.86233,-0.6145 -3.781277,-0.67738 -7.453947,-1.9378 -10.129147,-3.33541 -1.34331,-0.6831 -2.440829,-1.38619 -3.19251,-1.93781 -0.760259,-0.53446 -1.174678,-0.92031 -1.174678,-0.92031 0,0 0.525888,-0.21722 1.417619,-0.46015 0.9003,-0.25152 2.172171,-0.53447 3.6641,-0.71168 1.160389,-0.14861 2.452259,-0.22578 3.824161,-0.22578 2.166448,0 4.524375,0.19149 6.836595,0.60592 3.78128,0.67165 7.45967,1.9235 10.13487,3.32398 1.34617,0.68308 2.43797,1.38904 3.1925,1.94065 0.75455,0.53733 1.17755,0.92603 1.17755,0.92603 0,0 -0.53161,0.22294 -1.43192,0.46302 z m 3.1182,-17.460201 c -0.89458,0.25151 -2.16931,0.53732 -3.66409,0.71738 -1.14897,0.14862 -2.43511,0.22579 -3.79558,0.22579 -2.17216,0 -4.53581,-0.19721 -6.85947,-0.61735 -3.77842,-0.67737 -7.456805,-1.9378 -10.132008,-3.3297 -1.346168,-0.68309 -2.437958,-1.38904 -3.192507,-1.94067 -0.760262,-0.53446 -1.174681,-0.9203 -1.174681,-0.9203 0,0 0.528748,-0.21722 1.420479,-0.4573 0.903171,-0.25437 2.169311,-0.53446 3.664101,-0.71167 1.160391,-0.14862 2.455119,-0.22579 3.82702,-0.22579 2.163576,0 4.515806,0.19149 6.836586,0.60592 3.77843,0.66879 7.45683,1.92065 10.13487,3.32112 1.34046,0.68596 2.4294,1.38618 3.18679,1.94067 0.76027,0.54017 1.17755,0.92602 1.17755,0.92602 0,0 -0.52875,0.22293 -1.42906,0.46588 z m 1.9721,-18.18618 c -0.20578,0.0772 -0.52589,0.24581 -0.90602,0.35727 -0.77454,0.27438 -1.86349,0.57734 -3.15536,0.80885 -1.21184,0.22007 -2.59802,0.3344 -4.06137,0.3344 -1.62913,0 -3.35257,-0.14291 -5.05315,-0.44873 -3.21823,-0.57733 -6.33357,-1.73202 -8.588617,-3.052459 -1.126099,-0.66308 -2.049269,-1.326171 -2.678049,-1.846342 -0.325829,-0.23436 -0.565909,-0.500168 -0.734539,-0.64879 -0.165761,-0.154339 -0.25437,-0.23722 -0.25437,-0.23722 0,0 0.114318,-0.0514 0.322958,-0.140049 0.202941,-0.0772 0.523041,-0.242951 0.906031,-0.35441 0.774539,-0.27438 1.866339,-0.571621 3.15536,-0.803129 1.223256,-0.22008 2.618016,-0.334402 4.095666,-0.334402 1.61769,0 3.33541,0.14005 5.02171,0.43729 3.21823,0.57163 6.33643,1.723441 8.58576,3.046752 1.13181,0.660228 2.05213,1.3233 2.68091,1.849199 0.32583,0.23722 0.56019,0.50589 0.72882,0.65164 0.16862,0.15721 0.25722,0.24009 0.25722,0.24009 0,0 -0.1086,0.0486 -0.32296,0.14004 z"
       id="path1501"
       style="fill:#ffffff;fill-opacity:1;stroke-width:2.85811" />
  </g>
</svg>
