<?xml version="1.0" encoding="UTF-8" standalone="no"?>
<svg
   xmlns:dc="http://purl.org/dc/elements/1.1/"
   xmlns:cc="http://creativecommons.org/ns#"
   xmlns:rdf="http://www.w3.org/1999/02/22-rdf-syntax-ns#"
   xmlns:svg="http://www.w3.org/2000/svg"
   xmlns="http://www.w3.org/2000/svg"
   xmlns:sodipodi="http://sodipodi.sourceforge.net/DTD/sodipodi-0.dtd"
   xmlns:inkscape="http://www.inkscape.org/namespaces/inkscape"
   width="303.89285mm"
   height="303.89285mm"
   viewBox="0 0 303.89285 303.89285"
   version="1.1"
   id="svg8"
   inkscape:version="1.0.1 (3bc2e813f5, 2020-09-07)"
   sodipodi:docname="forms_cone.svg"
   inkscape:export-filename="E:\icones\inkscape\icones\forms_question_mark.png"
   inkscape:export-xdpi="96"
   inkscape:export-ydpi="96">
  <defs
     id="defs2">
    <rect
       x="-1206.5"
       y="-148.16667"
       width="423.33334"
       height="296.33334"
       id="rect1787" />
    <rect
       x="-1206.5"
       y="-148.16667"
       width="423.33334"
       height="296.33334"
       id="rect1547" />
  </defs>
  <sodipodi:namedview
     id="base"
     pagecolor="#e1e1e1"
     bordercolor="#666666"
     borderopacity="1.0"
     inkscape:pageopacity="0"
     inkscape:pageshadow="2"
     inkscape:zoom="0.35"
     inkscape:cx="674.28571"
     inkscape:cy="760.00002"
     inkscape:document-units="mm"
     inkscape:current-layer="layer1"
     inkscape:document-rotation="0"
     showgrid="false"
     inkscape:window-width="2560"
     inkscape:window-height="1377"
     inkscape:window-x="-8"
     inkscape:window-y="-8"
     inkscape:window-maximized="1" />
  <metadata
     id="metadata5">
    <rdf:RDF>
      <cc:Work
         rdf:about="">
        <dc:format>image/svg+xml</dc:format>
        <dc:type
           rdf:resource="http://purl.org/dc/dcmitype/StillImage" />
        <dc:title></dc:title>
      </cc:Work>
    </rdf:RDF>
  </metadata>
  <g
     inkscape:label="Calque 1"
     inkscape:groupmode="layer"
     id="layer1"
     transform="translate(72.571426,52.916672)">
    <g
       id="g1474"
       style="clip-rule:evenodd;fill:#ffffff;fill-opacity:1;fill-rule:evenodd;image-rendering:optimizeQuality;shape-rendering:geometricPrecision;text-rendering:geometricPrecision"
       transform="matrix(0.59952946,0,0,0.59952946,-30.033607,-3.0152358)">
      <path
         class="fil0"
         d="m 343,227 -70,-28 8,22 c 0,24 -47,43 -102,43 -55,0 -101,-19 -102,-43 l 8,-22 -70,28 c -19,8 -20,23 -2,33 l 132,70 c 19,10 49,10 68,0 l 132,-70 c 18,-10 18,-25 -2,-33 z"
         id="path1468"
         style="fill:#ffffff;fill-opacity:1" />
      <path
         class="fil0"
         d="m 265,174 c -5,49 -166,49 -172,0 8,-22 15,-44 23,-65 13,37 113,39 126,0 8,21 16,43 23,65 z"
         id="path1470"
         style="fill:#ffffff;fill-opacity:1" />
      <path
         class="fil0"
         d="m 131,67 c 6,-18 12,-36 19,-54 6,-17 52,-17 58,0 7,18 13,36 20,54 -15,25 -84,25 -97,0 z"
         id="path1472"
         style="fill:#ffffff;fill-opacity:1" />
    </g>
  </g>
</svg>
