<?xml version="1.0" encoding="UTF-8" standalone="no"?>
<svg
   xmlns:dc="http://purl.org/dc/elements/1.1/"
   xmlns:cc="http://creativecommons.org/ns#"
   xmlns:rdf="http://www.w3.org/1999/02/22-rdf-syntax-ns#"
   xmlns:svg="http://www.w3.org/2000/svg"
   xmlns="http://www.w3.org/2000/svg"
   xmlns:sodipodi="http://sodipodi.sourceforge.net/DTD/sodipodi-0.dtd"
   xmlns:inkscape="http://www.inkscape.org/namespaces/inkscape"
   width="303.89285mm"
   height="303.89285mm"
   viewBox="0 0 303.89285 303.89285"
   version="1.1"
   id="svg8"
   inkscape:version="1.0.1 (3bc2e813f5, 2020-09-07)"
   sodipodi:docname="forms_target.svg"
   inkscape:export-filename="E:\icones\inkscape\icones\forms_attention.png"
   inkscape:export-xdpi="96"
   inkscape:export-ydpi="96">
  <defs
     id="defs2">
    <rect
       x="-1206.5"
       y="-148.16667"
       width="423.33334"
       height="296.33334"
       id="rect1787" />
    <rect
       x="-1206.5"
       y="-148.16667"
       width="423.33334"
       height="296.33334"
       id="rect1547" />
  </defs>
  <sodipodi:namedview
     id="base"
     pagecolor="#e1e1e1"
     bordercolor="#666666"
     borderopacity="1.0"
     inkscape:pageopacity="0"
     inkscape:pageshadow="2"
     inkscape:zoom="0.35"
     inkscape:cx="985.71425"
     inkscape:cy="311.42849"
     inkscape:document-units="mm"
     inkscape:current-layer="layer1"
     inkscape:document-rotation="0"
     showgrid="false"
     inkscape:window-width="2560"
     inkscape:window-height="1377"
     inkscape:window-x="-8"
     inkscape:window-y="-8"
     inkscape:window-maximized="1" />
  <metadata
     id="metadata5">
    <rdf:RDF>
      <cc:Work
         rdf:about="">
        <dc:format>image/svg+xml</dc:format>
        <dc:type
           rdf:resource="http://purl.org/dc/dcmitype/StillImage" />
        <dc:title></dc:title>
      </cc:Work>
    </rdf:RDF>
  </metadata>
  <g
     inkscape:label="Calque 1"
     inkscape:groupmode="layer"
     id="layer1"
     transform="translate(154.97022,-5.291687)">
    <path
       d="M 104.46472,148.59954 H 97.055022 C 94.601322,98.869464 54.588922,58.857065 4.8589224,56.403355 v -7.4097 c 0,-2.672359 -2.1865,-4.858828 -4.85881001905,-4.858828 -2.67239998095,0 -4.85879998095,2.186469 -4.85879998095,4.858828 v 7.4097 C -54.588788,58.857065 -94.601288,98.869464 -97.054988,148.59954 h -7.409602 c -2.6725,0 -4.8589,2.18647 -4.8589,4.85882 0,2.67235 2.1864,4.85883 4.8589,4.85883 h 7.409602 c 2.4537,49.73004 42.4662,89.74245 92.1963004,92.19615 v 7.40971 c 0,2.67236 2.1864,4.85883 4.85879998095,4.85883 2.67231001905,0 4.85881001905,-2.18647 4.85881001905,-4.85883 v -7.40971 C 54.588922,248.05964 94.601322,208.04723 97.055022,158.31719 h 7.409698 c 2.6724,0 4.8588,-2.18648 4.8588,-4.85883 0,-2.67235 -2.1864,-4.85882 -4.8588,-4.85882 z M 4.8589224,240.77141 v -7.14247 c 0,-2.67236 -2.1865,-4.85883 -4.85881001905,-4.85883 -2.67239998095,0 -4.85879998095,2.18647 -4.85879998095,4.85883 v 7.14247 C -49.219878,238.34201 -84.883588,202.67824 -87.312988,158.31719 h 7.1425 c 2.6723,0 4.8587,-2.18648 4.8587,-4.85883 0,-2.67235 -2.1864,-4.85882 -4.8587,-4.85882 h -7.1425 c 2.4294,-44.36106 38.09311,-80.024835 82.4543004,-82.454235 v 7.14247 c 0,2.672339 2.1864,4.858821 4.85879998095,4.858821 C 2.6724224,78.146596 4.8589224,75.960114 4.8589224,73.287775 v -7.14247 c 44.3609996,2.4294 80.0247996,38.093175 82.4541996,82.454235 h -7.1425 c -2.6724,0 -4.8588,2.18647 -4.8588,4.85882 0,2.67235 2.1864,4.85883 4.8588,4.85883 h 7.1425 c -2.4294,44.36105 -38.0932,80.02482 -82.4541996,82.45422 z M 1.1238095e-4,102.44072 C -28.132578,102.44072 -51.017578,125.32577 -51.017578,153.45836 c 0,28.13259 22.885,51.01763 51.01769038095,51.01763 C 28.132722,204.47599 51.017622,181.59095 51.017622,153.45836 c 0,-28.13259 -22.8849,-51.01764 -51.01750961905,-51.01764 z m 0,92.31763 C -22.763478,194.75835 -41.299888,176.22195 -41.299888,153.45836 c 0,-22.76359 18.53641,-41.3 41.30000038095,-41.3 22.76350961905,0 41.29990961905,18.53641 41.29990961905,41.3 0,22.76359 -18.5364,41.29999 -41.29990961905,41.29999 z M 25.290322,135.45642 c 1.8948,1.89494 1.8948,4.98029 0,6.87523 l -29.1530096,29.15293 c -0.94739,0.92318 -2.18649,1.40907 -3.4255,1.40907 -1.23889,0 -2.478,-0.48589 -3.4254904,-1.43336 l -14.57641,-14.57647 c -1.89499,-1.89492 -1.89499,-4.98028 0,-6.87522 1.89491,-1.89495 4.98031,-1.89495 6.8752,0 l 11.1267004,11.15099 25.7276096,-25.72747 c 1.8948,-1.89494 4.9558,-1.89494 6.8509,0.0243 z"
       id="path1972"
       style="stroke-width:2.42941" />
  </g>
</svg>
