<?xml version="1.0" encoding="UTF-8" standalone="no"?>
<svg
   xmlns:dc="http://purl.org/dc/elements/1.1/"
   xmlns:cc="http://creativecommons.org/ns#"
   xmlns:rdf="http://www.w3.org/1999/02/22-rdf-syntax-ns#"
   xmlns:svg="http://www.w3.org/2000/svg"
   xmlns="http://www.w3.org/2000/svg"
   xmlns:sodipodi="http://sodipodi.sourceforge.net/DTD/sodipodi-0.dtd"
   xmlns:inkscape="http://www.inkscape.org/namespaces/inkscape"
   width="303.89285mm"
   height="303.89285mm"
   viewBox="0 0 303.89285 303.89285"
   version="1.1"
   id="svg8"
   inkscape:version="1.0.1 (3bc2e813f5, 2020-09-07)"
   sodipodi:docname="forms_barrier.svg"
   inkscape:export-filename="E:\icones\inkscape\icones\forms_attention.png"
   inkscape:export-xdpi="96"
   inkscape:export-ydpi="96">
  <defs
     id="defs2">
    <rect
       x="-1206.5"
       y="-148.16667"
       width="423.33334"
       height="296.33334"
       id="rect1787" />
    <rect
       x="-1206.5"
       y="-148.16667"
       width="423.33334"
       height="296.33334"
       id="rect1547" />
  </defs>
  <sodipodi:namedview
     id="base"
     pagecolor="#e1e1e1"
     bordercolor="#666666"
     borderopacity="1.0"
     inkscape:pageopacity="0"
     inkscape:pageshadow="2"
     inkscape:zoom="0.35"
     inkscape:cx="631.42853"
     inkscape:cy="471.42844"
     inkscape:document-units="mm"
     inkscape:current-layer="layer1"
     inkscape:document-rotation="0"
     showgrid="false"
     inkscape:window-width="2560"
     inkscape:window-height="1377"
     inkscape:window-x="-8"
     inkscape:window-y="-8"
     inkscape:window-maximized="1" />
  <metadata
     id="metadata5">
    <rdf:RDF>
      <cc:Work
         rdf:about="">
        <dc:format>image/svg+xml</dc:format>
        <dc:type
           rdf:resource="http://purl.org/dc/dcmitype/StillImage" />
        <dc:title></dc:title>
      </cc:Work>
    </rdf:RDF>
  </metadata>
  <g
     inkscape:label="Calque 1"
     inkscape:groupmode="layer"
     id="layer1"
     transform="translate(61.232124,37.041634)">
    <path
       d="m -22.516842,151.30078 h 15.8373995 v 40.15298 c 0,1.32954 1.580293,2.41741 3.511664,2.41741 H 18.639702 c 1.931368,0 3.511709,-1.08787 3.511709,-2.41741 V 151.30078 H 157.59604 v 40.15298 c 0,1.32954 1.54521,2.41741 3.51165,2.41741 h 21.77237 c 1.96654,0 3.51165,-1.08787 3.51165,-2.41741 v -40.15298 h 15.8377 c 1.96649,0 3.51171,-1.08786 3.51171,-2.41741 v -36.45442 c 0,-1.32969 -1.54522,-2.41741 -3.51171,-2.41741 h -15.8377 V 90.285099 h 15.8377 c 1.96649,0 3.51171,-1.08786 3.51171,-2.41741 V 51.413271 c 0,-1.32969 -1.54522,-2.4174 -3.51171,-2.4174 h -15.8377 v -9.25872 c 0,-1.32955 -1.54511,-2.417411 -3.51165,-2.417411 h -21.77237 c -1.96644,0 -3.51165,1.087861 -3.51165,2.417411 v 9.25872 H 22.151411 v -9.25872 c 0,-1.32955 -1.580341,-2.417411 -3.511709,-2.417411 H -3.1677785 c -1.931371,0 -3.511664,1.087861 -3.511664,2.417411 v 9.25872 H -22.516842 c -1.9316,0 -3.51166,1.08771 -3.51166,2.4174 v 36.454418 c 0,1.32955 1.58006,2.41741 3.51166,2.41741 H -6.6794425 V 110.01154 H -22.516842 c -1.9316,0 -3.51166,1.08772 -3.51166,2.41741 v 36.45442 c 0,1.32955 1.58006,2.41741 3.51166,2.41741 z m 112.197293,-4.83482 h -28.9712 l 29.322522,-31.6196 h 29.006397 z m 74.658119,-2.6e-4 h -3.23088 c -7.9e-4,0 0,2.6e-4 0,2.6e-4 h -25.7736 l 29.3577,-31.6196 h 29.00629 z m 0.35118,-92.634994 h 18.19031 10.81598 l -29.35756,31.619583 h -3.2307 -25.77575 z m -74.657977,0 H 119.03817 L 89.680451,85.450289 h -28.97107 z m -74.622731,0 h 3.230671 25.740479 l -29.3574,31.619603 H -3.1677785 -13.948402 Z m 6.742369,36.454423 H 157.59613 V 110.01157 H 22.151411 Z m -6.742369,24.561231 h 28.97115 l -29.35718,31.61931 H -3.1677785 c -5.29e-4,0 -7.93e-4,2.7e-4 -0.003,2.7e-4 H -13.949242 Z"
       id="path2020"
       style="fill:#ffffff;fill-opacity:1;stroke-width:2.91362" />
  </g>
</svg>
